<mxfile host="65bd71144e">
    <diagram id="0ZwW-vUITOqkvyoN0IJ5" name="Page-1">
        <mxGraphModel dx="1074" dy="790" grid="1" gridSize="10" guides="1" tooltips="1" connect="1" arrows="1" fold="1" page="1" pageScale="1" pageWidth="827" pageHeight="1169" background="#ffffff" math="0" shadow="0">
            <root>
                <mxCell id="0"/>
                <mxCell id="1" parent="0"/>
                <mxCell id="4" style="edgeStyle=none;html=1;entryX=0.5;entryY=0;entryDx=0;entryDy=0;fontSize=18;strokeColor=#050505;strokeWidth=3;" parent="1" source="2" target="3" edge="1">
                    <mxGeometry relative="1" as="geometry"/>
                </mxCell>
                <mxCell id="2" value="&lt;span style=&quot;font-size: 18px&quot;&gt;机器人开始运动&lt;/span&gt;" style="ellipse;whiteSpace=wrap;html=1;fillColor=#FAFAFA;fontColor=#030303;strokeWidth=3;strokeColor=#030303;" parent="1" vertex="1">
                    <mxGeometry x="90" y="80" width="140" height="80" as="geometry"/>
                </mxCell>
                <mxCell id="3" value="&lt;font style=&quot;font-size: 16px&quot;&gt;运动到&lt;br&gt;检测点位 1&lt;/font&gt;" style="rounded=1;whiteSpace=wrap;html=1;fontSize=12;arcSize=20;fillColor=#FAFAFA;strokeColor=#030303;fontColor=#030303;strokeWidth=3;" parent="1" vertex="1">
                    <mxGeometry x="100" y="260" width="120" height="60" as="geometry"/>
                </mxCell>
                <mxCell id="5" value="&lt;span style=&quot;font-size: 16px&quot;&gt;相机开始拍照&lt;/span&gt;" style="rounded=1;whiteSpace=wrap;html=1;fontSize=12;arcSize=20;fillColor=#FAFAFA;strokeColor=#030303;fontColor=#030303;strokeWidth=3;" vertex="1" parent="1">
                    <mxGeometry x="100" y="390" width="120" height="60" as="geometry"/>
                </mxCell>
                <mxCell id="6" value="&lt;span style=&quot;font-size: 18px&quot;&gt;检测算法模块&lt;/span&gt;" style="ellipse;whiteSpace=wrap;html=1;fillColor=#FAFAFA;fontColor=#030303;strokeWidth=3;strokeColor=#0000F5;" vertex="1" parent="1">
                    <mxGeometry x="320" y="80" width="140" height="80" as="geometry"/>
                </mxCell>
                <mxCell id="8" value="&lt;font style=&quot;font-size: 16px&quot;&gt;调用对应算法A进行计算&lt;/font&gt;" style="rounded=1;whiteSpace=wrap;html=1;fontSize=12;arcSize=20;fillColor=#FAFAFA;strokeColor=#0000F5;fontColor=#030303;strokeWidth=3;" vertex="1" parent="1">
                    <mxGeometry x="330" y="390" width="120" height="60" as="geometry"/>
                </mxCell>
                <mxCell id="9" style="edgeStyle=none;html=1;entryX=0.5;entryY=0;entryDx=0;entryDy=0;fontSize=18;strokeColor=#050505;strokeWidth=3;exitX=0.5;exitY=1;exitDx=0;exitDy=0;" edge="1" parent="1" source="3" target="5">
                    <mxGeometry relative="1" as="geometry">
                        <mxPoint x="210" y="300" as="sourcePoint"/>
                        <mxPoint x="210" y="400" as="targetPoint"/>
                    </mxGeometry>
                </mxCell>
                <mxCell id="10" style="edgeStyle=none;html=1;entryX=0.5;entryY=0;entryDx=0;entryDy=0;fontSize=18;strokeColor=#0000F5;strokeWidth=3;exitX=0.5;exitY=1;exitDx=0;exitDy=0;exitPerimeter=0;" edge="1" parent="1" source="6" target="8">
                    <mxGeometry relative="1" as="geometry">
                        <mxPoint x="390" y="170" as="sourcePoint"/>
                        <mxPoint x="310" y="300" as="targetPoint"/>
                    </mxGeometry>
                </mxCell>
                <mxCell id="11" style="edgeStyle=none;html=1;entryX=0;entryY=0.5;entryDx=0;entryDy=0;fontSize=18;strokeColor=#050505;strokeWidth=3;exitX=1;exitY=0.5;exitDx=0;exitDy=0;" edge="1" parent="1" source="5" target="8">
                    <mxGeometry relative="1" as="geometry">
                        <mxPoint x="300" y="250" as="sourcePoint"/>
                        <mxPoint x="300" y="350" as="targetPoint"/>
                    </mxGeometry>
                </mxCell>
            </root>
        </mxGraphModel>
    </diagram>
</mxfile>